<svg width="276" height="256" viewBox="0 0 276 256" fill="none" xmlns="http://www.w3.org/2000/svg">
<rect width="276" height="256" rx="8" fill="white"/>
<g clip-path="url(#clip0_149_943)">
<path d="M25.1831 24.175L21.3581 28L25.1831 31.825L23.9998 33L18.9998 28L23.9998 23L25.1831 24.175Z" fill="#42526D"/>
<path d="M100.58 30.9062L104.019 27.4404C104.433 27.012 104.752 26.6657 104.976 26.4014C105.199 26.137 105.365 25.8773 105.475 25.6221C105.589 25.3623 105.646 25.0934 105.646 24.8154C105.646 24.501 105.566 24.223 105.406 23.9814C105.247 23.7399 105.028 23.5531 104.75 23.4209C104.472 23.2887 104.16 23.2227 103.813 23.2227C103.453 23.2227 103.137 23.2956 102.863 23.4414C102.594 23.5827 102.385 23.7878 102.234 24.0566C102.089 24.321 102.016 24.6263 102.016 24.9727H100.587C100.587 24.3802 100.726 23.8561 101.004 23.4004C101.282 22.9447 101.667 22.5915 102.159 22.3408C102.656 22.0902 103.219 21.9648 103.848 21.9648C104.472 21.9648 105.028 22.0879 105.516 22.334C106.003 22.5755 106.384 22.9105 106.657 23.3389C106.935 23.7627 107.074 24.2389 107.074 24.7676C107.074 25.1458 107.004 25.5104 106.862 25.8613C106.721 26.2122 106.482 26.5996 106.145 27.0234C105.807 27.4473 105.324 27.9691 104.695 28.5889L102.679 30.6328V30.708H107.238V32H100.587L100.58 30.9062ZM112.358 32.1367C111.597 32.1367 110.946 31.9385 110.403 31.542C109.861 31.1455 109.446 30.5667 109.159 29.8057C108.872 29.0446 108.729 28.1263 108.729 27.0508C108.729 25.9844 108.872 25.0706 109.159 24.3096C109.446 23.5485 109.863 22.9674 110.41 22.5664C110.957 22.1654 111.606 21.9648 112.358 21.9648C113.11 21.9648 113.76 22.1654 114.307 22.5664C114.854 22.9674 115.271 23.5485 115.558 24.3096C115.845 25.0706 115.988 25.9844 115.988 27.0508C115.988 28.1263 115.845 29.0446 115.558 29.8057C115.275 30.5667 114.86 31.1455 114.313 31.542C113.771 31.9385 113.119 32.1367 112.358 32.1367ZM112.358 30.8447C112.8 30.8447 113.181 30.6989 113.5 30.4072C113.824 30.1156 114.07 29.6872 114.238 29.1221C114.407 28.5524 114.489 27.862 114.484 27.0508C114.484 26.2396 114.4 25.5492 114.231 24.9795C114.063 24.4098 113.819 23.9769 113.5 23.6807C113.181 23.3844 112.8 23.2363 112.358 23.2363C111.916 23.2363 111.536 23.3844 111.217 23.6807C110.898 23.9769 110.652 24.4098 110.479 24.9795C110.305 25.5492 110.219 26.2396 110.219 27.0508C110.219 27.862 110.303 28.5524 110.472 29.1221C110.64 29.6872 110.886 30.1156 111.21 30.4072C111.534 30.6989 111.916 30.8447 112.358 30.8447ZM117.547 30.9062L120.985 27.4404C121.4 27.012 121.719 26.6657 121.942 26.4014C122.166 26.137 122.332 25.8773 122.441 25.6221C122.555 25.3623 122.612 25.0934 122.612 24.8154C122.612 24.501 122.533 24.223 122.373 23.9814C122.214 23.7399 121.995 23.5531 121.717 23.4209C121.439 23.2887 121.127 23.2227 120.78 23.2227C120.42 23.2227 120.104 23.2956 119.83 23.4414C119.561 23.5827 119.352 23.7878 119.201 24.0566C119.055 24.321 118.982 24.6263 118.982 24.9727H117.554C117.554 24.3802 117.693 23.8561 117.971 23.4004C118.249 22.9447 118.634 22.5915 119.126 22.3408C119.623 22.0902 120.186 21.9648 120.814 21.9648C121.439 21.9648 121.995 22.0879 122.482 22.334C122.97 22.5755 123.351 22.9105 123.624 23.3389C123.902 23.7627 124.041 24.2389 124.041 24.7676C124.041 25.1458 123.97 25.5104 123.829 25.8613C123.688 26.2122 123.449 26.5996 123.111 27.0234C122.774 27.4473 122.291 27.9691 121.662 28.5889L119.646 30.6328V30.708H124.205V32H117.554L117.547 30.9062ZM129.387 32.1367C128.717 32.1367 128.115 32.0228 127.582 31.7949C127.049 31.5671 126.63 31.248 126.324 30.8379C126.019 30.4232 125.855 29.9469 125.832 29.4092H127.35C127.372 29.6872 127.475 29.9355 127.657 30.1543C127.84 30.373 128.081 30.5417 128.382 30.6602C128.683 30.7786 129.015 30.8379 129.38 30.8379C129.772 30.8379 130.127 30.7695 130.446 30.6328C130.765 30.4915 131.011 30.3024 131.185 30.0654C131.358 29.8239 131.444 29.5459 131.444 29.2314C131.444 28.8988 131.358 28.6048 131.185 28.3496C131.011 28.0944 130.756 27.8962 130.419 27.7549C130.086 27.6136 129.685 27.543 129.216 27.543H128.368V26.3193H129.216C129.59 26.3193 129.922 26.2533 130.214 26.1211C130.506 25.9889 130.731 25.8044 130.891 25.5674C131.05 25.3304 131.128 25.057 131.123 24.7471C131.128 24.4463 131.059 24.1797 130.918 23.9473C130.777 23.7148 130.576 23.5371 130.316 23.4141C130.057 23.2865 129.756 23.2227 129.414 23.2227C129.077 23.2227 128.765 23.2819 128.478 23.4004C128.19 23.5189 127.956 23.6875 127.773 23.9062C127.596 24.125 127.5 24.3825 127.486 24.6787H126.037C126.06 24.1501 126.222 23.6807 126.522 23.2705C126.828 22.8558 127.233 22.5345 127.739 22.3066C128.25 22.0788 128.81 21.9648 129.421 21.9648C130.054 21.9648 130.61 22.0856 131.089 22.3271C131.572 22.5641 131.943 22.8877 132.203 23.2979C132.463 23.708 132.588 24.1615 132.579 24.6582C132.588 25.0228 132.52 25.3577 132.374 25.6631C132.233 25.9639 132.028 26.2168 131.759 26.4219C131.494 26.6224 131.185 26.766 130.829 26.8525V26.9277C131.276 26.987 131.659 27.126 131.978 27.3447C132.301 27.5589 132.547 27.8301 132.716 28.1582C132.884 28.4863 132.964 28.86 132.955 29.2793C132.964 29.8171 132.814 30.3047 132.504 30.7422C132.194 31.1751 131.766 31.5169 131.219 31.7676C130.672 32.0137 130.061 32.1367 129.387 32.1367ZM144.419 29.9629H143.12V20.9189H144.419V29.9629ZM143.578 23.4824H139.757V22.4502H143.578V23.4824ZM144.733 32.916H136.435V31.8428H144.733V32.916ZM137.747 32.3418H136.435V29.1836H137.747V32.3418ZM136.223 27.5566H134.924V21.7598H136.223V27.5566ZM135.867 27.1396C136.842 27.1396 137.747 27.11 138.581 27.0508C139.415 26.987 140.27 26.8753 141.145 26.7158L141.268 27.7754C140.37 27.944 139.499 28.0602 138.656 28.124C137.813 28.1878 136.883 28.222 135.867 28.2266H134.924V27.1396H135.867ZM143.578 25.8066H139.757V24.7744H143.578V25.8066ZM153.907 32H152.39V23.6123H152.335L149.977 25.1572V23.7148L152.431 22.1016H153.907V32ZM159.868 32.1367C159.107 32.1367 158.455 31.9385 157.913 31.542C157.371 31.1455 156.956 30.5667 156.669 29.8057C156.382 29.0446 156.238 28.1263 156.238 27.0508C156.238 25.9844 156.382 25.0706 156.669 24.3096C156.956 23.5485 157.373 22.9674 157.92 22.5664C158.467 22.1654 159.116 21.9648 159.868 21.9648C160.62 21.9648 161.27 22.1654 161.816 22.5664C162.363 22.9674 162.78 23.5485 163.067 24.3096C163.354 25.0706 163.498 25.9844 163.498 27.0508C163.498 28.1263 163.354 29.0446 163.067 29.8057C162.785 30.5667 162.37 31.1455 161.823 31.542C161.281 31.9385 160.629 32.1367 159.868 32.1367ZM159.868 30.8447C160.31 30.8447 160.691 30.6989 161.01 30.4072C161.333 30.1156 161.579 29.6872 161.748 29.1221C161.917 28.5524 161.999 27.862 161.994 27.0508C161.994 26.2396 161.91 25.5492 161.741 24.9795C161.573 24.4098 161.329 23.9769 161.01 23.6807C160.691 23.3844 160.31 23.2363 159.868 23.2363C159.426 23.2363 159.046 23.3844 158.727 23.6807C158.408 23.9769 158.161 24.4098 157.988 24.9795C157.815 25.5492 157.729 26.2396 157.729 27.0508C157.729 27.862 157.813 28.5524 157.981 29.1221C158.15 29.6872 158.396 30.1156 158.72 30.4072C159.043 30.6989 159.426 30.8447 159.868 30.8447ZM169.158 28.1309H167.88V25.9434H169.158V28.1309ZM174.832 28.0967H173.533V20.9189H174.832V28.0967ZM164.612 25.4307C166.107 25.4398 167.52 25.4261 168.851 25.3896C170.181 25.3486 171.437 25.2666 172.617 25.1436L172.692 25.9707C171.476 26.1393 170.204 26.251 168.878 26.3057C167.552 26.3604 166.178 26.3831 164.756 26.374L164.612 25.4307ZM174.832 31.1592H167.777V32.4238H166.499V30.2842H173.547V29.4297H166.444V28.5137H174.832V31.1592ZM175.194 33.0391H166.499V32.1025H175.194V33.0391ZM173.957 27.5225H171.141V26.6953H173.957V27.5225ZM168.591 21.1309C169.192 21.1309 169.723 21.2083 170.184 21.3633C170.648 21.5137 171.008 21.7279 171.264 22.0059C171.519 22.2793 171.646 22.6029 171.646 22.9766C171.646 23.3503 171.519 23.6761 171.264 23.9541C171.013 24.2321 170.655 24.444 170.19 24.5898C169.73 24.7357 169.197 24.8086 168.591 24.8086C167.976 24.8086 167.438 24.7357 166.978 24.5898C166.517 24.444 166.16 24.2321 165.904 23.9541C165.649 23.6761 165.521 23.3503 165.521 22.9766C165.521 22.6029 165.649 22.2793 165.904 22.0059C166.16 21.7279 166.517 21.5137 166.978 21.3633C167.442 21.2083 167.98 21.1309 168.591 21.1309ZM168.591 22.0127C168.222 22.0127 167.896 22.0514 167.613 22.1289C167.335 22.2064 167.121 22.318 166.971 22.4639C166.82 22.6097 166.745 22.7806 166.745 22.9766C166.745 23.168 166.82 23.3366 166.971 23.4824C167.121 23.6237 167.335 23.7354 167.613 23.8174C167.896 23.8949 168.222 23.9336 168.591 23.9336C168.96 23.9336 169.284 23.8949 169.562 23.8174C169.844 23.7354 170.058 23.6237 170.204 23.4824C170.354 23.3366 170.43 23.168 170.43 22.9766C170.43 22.7806 170.354 22.6097 170.204 22.4639C170.058 22.318 169.844 22.2064 169.562 22.1289C169.284 22.0514 168.96 22.0127 168.591 22.0127Z" fill="#42526D"/>
<path d="M250 31.825L253.825 28L250 24.175L251.183 23L256.183 28L251.183 33L250 31.825Z" fill="#42526D"/>
</g>
<path d="M23.0508 49.7021C23.0247 49.4482 22.9401 49.2269 22.7969 49.0381C22.6569 48.846 22.4648 48.7012 22.2207 48.6035C21.9798 48.5026 21.7064 48.4521 21.4004 48.4521C21.0781 48.4521 20.7933 48.5075 20.5459 48.6182C20.2985 48.7256 20.1048 48.877 19.9648 49.0723C19.8249 49.2643 19.7549 49.4857 19.7549 49.7363C19.7549 50.0716 19.8851 50.3369 20.1455 50.5322C20.4059 50.7243 20.7428 50.8789 21.1562 50.9961L21.8887 51.2012C22.4551 51.3542 22.9189 51.5771 23.2803 51.8701C23.6449 52.1598 23.8271 52.5732 23.8271 53.1104C23.8271 53.4912 23.7279 53.8346 23.5293 54.1406C23.334 54.4466 23.0475 54.6875 22.6699 54.8633C22.2956 55.0358 21.8545 55.1221 21.3467 55.1221C20.8682 55.1221 20.4482 55.0423 20.0869 54.8828C19.7288 54.7233 19.4473 54.5003 19.2422 54.2139C19.0371 53.9242 18.9215 53.5905 18.8955 53.2129H19.6035C19.6296 53.4831 19.7207 53.7126 19.877 53.9014C20.0332 54.0902 20.2383 54.235 20.4922 54.3359C20.7493 54.4368 21.0342 54.4873 21.3467 54.4873C21.695 54.4873 22.0059 54.4303 22.2793 54.3164C22.5527 54.1992 22.766 54.0348 22.9189 53.8232C23.0719 53.6117 23.1484 53.3691 23.1484 53.0957C23.1484 52.8711 23.0898 52.679 22.9727 52.5195C22.8555 52.36 22.6911 52.2282 22.4795 52.124C22.2712 52.0166 22.0075 51.9157 21.6885 51.8213L20.8389 51.582C20.2692 51.4128 19.833 51.18 19.5303 50.8838C19.2308 50.5843 19.0811 50.2116 19.0811 49.7656C19.0811 49.388 19.1836 49.0527 19.3887 48.7598C19.597 48.4668 19.877 48.2389 20.2285 48.0762C20.5833 47.9102 20.9805 47.8271 21.4199 47.8271C21.8561 47.8271 22.2451 47.9085 22.5869 48.0713C22.932 48.234 23.2054 48.457 23.4072 48.7402C23.609 49.0234 23.7165 49.3441 23.7295 49.7021H23.0508ZM32.0801 47.9297V52.6074C32.0801 53.0859 31.9661 53.5156 31.7383 53.8965C31.5137 54.2773 31.1963 54.5768 30.7861 54.7949C30.3792 55.013 29.9121 55.1221 29.3848 55.1221C28.8574 55.1221 28.3887 55.013 27.9785 54.7949C27.5716 54.5768 27.2542 54.2773 27.0264 53.8965C26.8018 53.5156 26.6895 53.0859 26.6895 52.6074V47.9297H27.3828V52.5586C27.3828 52.9232 27.4658 53.2503 27.6318 53.54C27.8011 53.8298 28.0371 54.0576 28.3398 54.2236C28.6426 54.3896 28.9909 54.4727 29.3848 54.4727C29.7852 54.4727 30.1367 54.3896 30.4395 54.2236C30.7422 54.0576 30.9749 53.8298 31.1377 53.54C31.3037 53.2503 31.3867 52.9232 31.3867 52.5586V47.9297H32.0801ZM40.7871 55H40.123L36.0117 49.1699H35.9531V55H35.2598V47.9297H35.9336L40.0449 53.7695H40.1035V47.9297H40.7871V55Z" fill="#7A8699"/>
<path d="M53.9844 47.9297L56.5088 54.0088H56.5771L59.1016 47.9297H59.9121V55H59.2578V49.3652H59.1992L56.8506 55H56.2256L53.877 49.3652H53.8281V55H53.1689V47.9297H53.9844ZM68.9316 51.4648C68.9316 52.1875 68.7998 52.8239 68.5361 53.374C68.2757 53.9242 67.9128 54.349 67.4473 54.6484C66.985 54.9479 66.4561 55.0977 65.8604 55.0977C65.2646 55.0977 64.734 54.9479 64.2686 54.6484C63.8063 54.349 63.4434 53.9242 63.1797 53.374C62.9193 52.8239 62.7891 52.1875 62.7891 51.4648C62.7891 50.7357 62.9193 50.0977 63.1797 49.5508C63.4434 49.0007 63.8063 48.5775 64.2686 48.2812C64.734 47.9818 65.2646 47.832 65.8604 47.832C66.4561 47.832 66.985 47.9818 67.4473 48.2812C67.9128 48.5775 68.2757 49.0007 68.5361 49.5508C68.7998 50.0977 68.9316 50.7357 68.9316 51.4648ZM68.2578 51.4648C68.2578 50.8496 68.1536 50.3174 67.9453 49.8682C67.7402 49.4189 67.457 49.0771 67.0957 48.8428C66.7344 48.6051 66.3226 48.4863 65.8604 48.4863C65.4014 48.4863 64.9896 48.6051 64.625 48.8428C64.2637 49.0771 63.9788 49.4189 63.7705 49.8682C63.5622 50.3174 63.458 50.8496 63.458 51.4648C63.458 52.0768 63.5622 52.6074 63.7705 53.0566C63.9788 53.5059 64.2637 53.8493 64.625 54.0869C64.9896 54.3245 65.4014 54.4434 65.8604 54.4434C66.3226 54.4434 66.7344 54.3262 67.0957 54.0918C67.457 53.8542 67.7402 53.5107 67.9453 53.0615C68.1536 52.6123 68.2578 52.0801 68.2578 51.4648ZM77.3311 55H76.667L72.5557 49.1699H72.4971V55H71.8037V47.9297H72.4775L76.5889 53.7695H76.6475V47.9297H77.3311V55Z" fill="#7A8699"/>
<path d="M91.5742 47.9297H96.75V48.5498H94.5137V55H93.8105V48.5498H91.5742V47.9297ZM104.891 47.9297V52.6074C104.891 53.0859 104.777 53.5156 104.549 53.8965C104.324 54.2773 104.007 54.5768 103.597 54.7949C103.19 55.013 102.723 55.1221 102.195 55.1221C101.668 55.1221 101.199 55.013 100.789 54.7949C100.382 54.5768 100.065 54.2773 99.8369 53.8965C99.6123 53.5156 99.5 53.0859 99.5 52.6074V47.9297H100.193V52.5586C100.193 52.9232 100.276 53.2503 100.442 53.54C100.612 53.8298 100.848 54.0576 101.15 54.2236C101.453 54.3896 101.801 54.4727 102.195 54.4727C102.596 54.4727 102.947 54.3896 103.25 54.2236C103.553 54.0576 103.785 53.8298 103.948 53.54C104.114 53.2503 104.197 52.9232 104.197 52.5586V47.9297H104.891ZM108.07 47.9297H112.216V48.5498H108.764V51.1523H111.996V51.7676H108.764V54.375H112.274V55H108.07V47.9297Z" fill="#7A8699"/>
<path d="M125.968 47.9297H126.671L128.253 53.9355H128.307L129.884 47.9297H130.68L132.267 53.9355H132.315L133.897 47.9297H134.601L132.662 55H131.925L130.313 49.0869H130.26L128.644 55H127.901L125.968 47.9297ZM137.102 47.9297H141.247V48.5498H137.795V51.1523H141.027V51.7676H137.795V54.375H141.306V55H137.102V47.9297ZM144.598 55V54.375H146.272C146.868 54.375 147.368 54.2594 147.771 54.0283C148.175 53.7939 148.478 53.4587 148.68 53.0225C148.885 52.5863 148.986 52.0622 148.982 51.4502C148.982 50.8447 148.883 50.3255 148.685 49.8926C148.489 49.4596 148.198 49.1276 147.811 48.8965C147.426 48.6654 146.953 48.5498 146.39 48.5498H144.573V47.9297H146.434C147.107 47.9297 147.685 48.0697 148.167 48.3496C148.652 48.6263 149.023 49.0299 149.28 49.5605C149.537 50.0911 149.666 50.721 149.666 51.4502C149.666 52.1891 149.534 52.8255 149.271 53.3594C149.007 53.89 148.624 54.2969 148.123 54.5801C147.622 54.86 147.02 55 146.316 55H144.598ZM144.91 55H144.217V47.9297H144.91V55Z" fill="#7A8699"/>
<path d="M162.871 47.9297H168.047V48.5498H165.811V55H165.107V48.5498H162.871V47.9297ZM170.797 47.9297H171.49V51.1523H175.45V47.9297H176.148V55H175.45V51.7676H171.49V55H170.797V47.9297ZM184.709 47.9297V52.6074C184.709 53.0859 184.595 53.5156 184.367 53.8965C184.143 54.2773 183.825 54.5768 183.415 54.7949C183.008 55.013 182.541 55.1221 182.014 55.1221C181.486 55.1221 181.018 55.013 180.607 54.7949C180.201 54.5768 179.883 54.2773 179.655 53.8965C179.431 53.5156 179.318 53.0859 179.318 52.6074V47.9297H180.012V52.5586C180.012 52.9232 180.095 53.2503 180.261 53.54C180.43 53.8298 180.666 54.0576 180.969 54.2236C181.271 54.3896 181.62 54.4727 182.014 54.4727C182.414 54.4727 182.766 54.3896 183.068 54.2236C183.371 54.0576 183.604 53.8298 183.767 53.54C183.933 53.2503 184.016 52.9232 184.016 52.5586V47.9297H184.709Z" fill="#7A8699"/>
<path d="M202.387 47.9297H206.518V48.5498H203.08V51.1523H206.19V51.7676H203.08V55H202.387V47.9297ZM209.424 47.9297H211.733C212.235 47.9297 212.658 48.0192 213.003 48.1982C213.348 48.374 213.607 48.623 213.779 48.9453C213.952 49.2676 214.038 49.6387 214.038 50.0586C214.038 50.4753 213.952 50.8431 213.779 51.1621C213.607 51.4779 213.348 51.7253 213.003 51.9043C212.658 52.0801 212.238 52.168 211.743 52.168H209.8V51.5332H211.714C212.078 51.5332 212.383 51.473 212.627 51.3525C212.871 51.2321 213.052 51.0628 213.169 50.8447C213.289 50.6266 213.35 50.3646 213.35 50.0586C213.35 49.7493 213.289 49.4824 213.169 49.2578C213.052 49.0299 212.869 48.8558 212.622 48.7354C212.378 48.6117 212.072 48.5498 211.704 48.5498H210.117V55H209.424V47.9297ZM214.331 55H213.521L211.802 51.8115H212.593L214.331 55ZM217.613 55H216.92V47.9297H217.613V55Z" fill="#7A8699"/>
<path d="M240.477 49.7021C240.451 49.4482 240.366 49.2269 240.223 49.0381C240.083 48.846 239.891 48.7012 239.646 48.6035C239.406 48.5026 239.132 48.4521 238.826 48.4521C238.504 48.4521 238.219 48.5075 237.972 48.6182C237.724 48.7256 237.531 48.877 237.391 49.0723C237.251 49.2643 237.181 49.4857 237.181 49.7363C237.181 50.0716 237.311 50.3369 237.571 50.5322C237.832 50.7243 238.169 50.8789 238.582 50.9961L239.314 51.2012C239.881 51.3542 240.345 51.5771 240.706 51.8701C241.071 52.1598 241.253 52.5732 241.253 53.1104C241.253 53.4912 241.154 53.8346 240.955 54.1406C240.76 54.4466 240.473 54.6875 240.096 54.8633C239.721 55.0358 239.28 55.1221 238.772 55.1221C238.294 55.1221 237.874 55.0423 237.513 54.8828C237.155 54.7233 236.873 54.5003 236.668 54.2139C236.463 53.9242 236.347 53.5905 236.321 53.2129H237.029C237.055 53.4831 237.146 53.7126 237.303 53.9014C237.459 54.0902 237.664 54.235 237.918 54.3359C238.175 54.4368 238.46 54.4873 238.772 54.4873C239.121 54.4873 239.432 54.4303 239.705 54.3164C239.979 54.1992 240.192 54.0348 240.345 53.8232C240.498 53.6117 240.574 53.3691 240.574 53.0957C240.574 52.8711 240.516 52.679 240.398 52.5195C240.281 52.36 240.117 52.2282 239.905 52.124C239.697 52.0166 239.433 51.9157 239.114 51.8213L238.265 51.582C237.695 51.4128 237.259 51.18 236.956 50.8838C236.657 50.5843 236.507 50.2116 236.507 49.7656C236.507 49.388 236.609 49.0527 236.814 48.7598C237.023 48.4668 237.303 48.2389 237.654 48.0762C238.009 47.9102 238.406 47.8271 238.846 47.8271C239.282 47.8271 239.671 47.9085 240.013 48.0713C240.358 48.234 240.631 48.457 240.833 48.7402C241.035 49.0234 241.142 49.3441 241.155 49.7021H240.477ZM243.451 55L246.02 47.9297H246.771L249.345 55H248.612L246.42 48.8281H246.366L244.174 55H243.451ZM248.163 52.2803V52.8955H244.633V52.2803H248.163ZM250.615 47.9297H255.791V48.5498H253.555V55H252.852V48.5498H250.615V47.9297Z" fill="#7A8699"/>
<rect x="17.5" y="68.5" width="25" height="25" rx="5" fill="#DFE2E6"/>
<rect x="53.5" y="68.5" width="25" height="25" rx="5" fill="#117FA4"/>
<rect x="89.5" y="68.5" width="25" height="25" rx="5" fill="#DFE2E6"/>
<rect x="125.5" y="68.5" width="25" height="25" rx="5" fill="#DFE2E6"/>
<rect x="161.5" y="68.5" width="25" height="25" rx="5" fill="#64CCEF"/>
<rect x="197.5" y="68.5" width="25" height="25" rx="5" fill="#DFE2E6"/>
<rect x="233.5" y="68.5" width="25" height="25" rx="5" fill="#DFE2E6"/>
<rect x="17.5" y="103.5" width="25" height="25" rx="5" fill="#B7E7F8"/>
<rect x="53.5" y="103.5" width="25" height="25" rx="5" fill="#DFE2E6"/>
<rect x="89.5" y="103.5" width="25" height="25" rx="5" fill="#DFE2E6"/>
<rect x="125.5" y="103.5" width="25" height="25" rx="5" fill="#117FA4"/>
<rect x="161.5" y="103.5" width="25" height="25" rx="5" fill="#DFE2E6"/>
<rect x="197.5" y="103.5" width="25" height="25" rx="5" fill="#DFE2E6"/>
<rect x="233.5" y="103.5" width="25" height="25" rx="5" fill="#DFE2E6"/>
<rect x="17.5" y="138.5" width="25" height="25" rx="5" fill="#DFE2E6"/>
<rect x="53.5" y="138.5" width="25" height="25" rx="5" fill="#64CCEF"/>
<rect x="89.5" y="138.5" width="25" height="25" rx="5" fill="#18B3E7"/>
<rect x="125.5" y="138.5" width="25" height="25" rx="5" fill="#B7E7F8"/>
<rect x="161.5" y="138.5" width="25" height="25" rx="5" fill="#DFE2E6"/>
<rect x="197.5" y="138.5" width="25" height="25" rx="5" fill="#117FA4"/>
<rect x="233.5" y="138.5" width="25" height="25" rx="5" fill="#DFE2E6"/>
<rect x="17.5" y="173.5" width="25" height="25" rx="5" fill="#117FA4"/>
<rect x="53.5" y="173.5" width="25" height="25" rx="5" fill="#DFE2E6"/>
<rect x="89.5" y="173.5" width="25" height="25" rx="5" fill="#64CCEF"/>
<rect x="125.5" y="173.5" width="25" height="25" rx="5" fill="#18B3E7"/>
<rect x="161.5" y="173.5" width="25" height="25" rx="5" fill="#B7E7F8"/>
<rect x="197.5" y="173.5" width="25" height="25" rx="5" fill="#DFE2E6"/>
<rect x="233.5" y="173.5" width="25" height="25" rx="5" fill="#DFE2E6"/>
<rect x="17.5" y="208.5" width="25" height="25" rx="5" fill="#DFE2E6"/>
<rect x="53.5" y="208.5" width="25" height="25" rx="5" fill="#DFE2E6"/>
<rect x="89.5" y="208.5" width="25" height="25" rx="5" fill="#DFE2E6"/>
<defs>
<clipPath id="clip0_149_943">
<rect width="246" height="16" fill="white" transform="translate(15 20)"/>
</clipPath>
</defs>
</svg>
